<svg width="25" height="25" viewBox="0 0 25 25" fill="none" xmlns="http://www.w3.org/2000/svg">
<rect x="2" y="2" width="21" height="21" rx="10.5" fill="#8D8D8D"/>
<path d="M9.24999 17.9167C8.95207 17.9167 8.69713 17.8107 8.48516 17.5987C8.27282 17.3864 8.16666 17.1313 8.16666 16.8333V11.4167C8.16666 11.1188 8.27282 10.8636 8.48516 10.6513C8.69713 10.4393 8.95207 10.3333 9.24999 10.3333H9.79166V9.25001C9.79166 8.5007 10.0558 7.86189 10.5841 7.33359C11.1121 6.80564 11.7507 6.54167 12.5 6.54167C13.2493 6.54167 13.8881 6.80564 14.4164 7.33359C14.9444 7.86189 15.2083 8.5007 15.2083 9.25001V10.3333H15.75C16.0479 10.3333 16.303 10.4393 16.5154 10.6513C16.7273 10.8636 16.8333 11.1188 16.8333 11.4167V16.8333C16.8333 17.1313 16.7273 17.3864 16.5154 17.5987C16.303 17.8107 16.0479 17.9167 15.75 17.9167H9.24999ZM12.5 15.2083C12.7979 15.2083 13.053 15.1024 13.2654 14.8904C13.4773 14.678 13.5833 14.4229 13.5833 14.125C13.5833 13.8271 13.4773 13.572 13.2654 13.3596C13.053 13.1477 12.7979 13.0417 12.5 13.0417C12.2021 13.0417 11.9471 13.1477 11.7352 13.3596C11.5228 13.572 11.4167 13.8271 11.4167 14.125C11.4167 14.4229 11.5228 14.678 11.7352 14.8904C11.9471 15.1024 12.2021 15.2083 12.5 15.2083ZM10.875 10.3333H14.125V9.25001C14.125 8.79862 13.967 8.41494 13.651 8.09896C13.3351 7.78299 12.9514 7.62501 12.5 7.62501C12.0486 7.62501 11.6649 7.78299 11.3489 8.09896C11.033 8.41494 10.875 8.79862 10.875 9.25001V10.3333Z" fill="white"/>
<rect x="2" y="2" width="21" height="21" rx="10.5" stroke="white" stroke-width="4"/>
</svg>
